<svg width="21" height="17" viewBox="0 0 21 17" fill="none" xmlns="http://www.w3.org/2000/svg">
<path d="M0.75 15.3219C0.75 16.0271 1.32612 16.5983 2.03595 16.5983H2.05443C1.33373 16.5983 0.75 16.0271 0.75 15.3219Z" fill="#FBBC05"/>
<path d="M11.8006 5.43004V8.76241L16.2933 5.1386V1.92004C16.2933 1.21485 15.7172 0.643677 15.0073 0.643677L5.27408 0.643677L5.26538 5.43004L11.8006 5.43004Z" fill="#FBBC05"/>
<path d="M11.8008 12.0962H5.25468L5.24707 16.5985H15.0075C15.7184 16.5985 16.2935 16.0274 16.2935 15.3222V12.4163L11.8008 8.76379V12.0962Z" fill="#34A853"/>
<path d="M5.27421 0.643677L0.75 5.43004L5.2666 5.43004L5.27421 0.643677Z" fill="#EA4335"/>
<path d="M0.75 12.0958L0.75 15.3218C0.75 16.027 1.33373 16.5982 2.05443 16.5982H5.24704L5.25465 12.0958H0.75Z" fill="#1967D2"/>
<path d="M5.2666 5.43005L0.75 5.43005L0.75 12.0959H5.25465L5.2666 5.43005Z" fill="#4285F4"/>
<path d="M20.2436 14.1873V3.2318C19.9903 1.77781 18.3957 3.44453 18.3957 3.44453L16.2944 5.1389V12.4152L19.3022 14.8605C20.3882 15.0031 20.2436 14.1873 20.2436 14.1873Z" fill="#34A853"/>
<path d="M11.8005 8.76239L16.2943 12.416V5.13965L11.8005 8.76239Z" fill="#188038"/>
</svg>
