<svg width="19" height="19" viewBox="0 0 19 19" fill="none" xmlns="http://www.w3.org/2000/svg">
<path d="M4.96689 4.2583C7.35303 5.27881 10.6261 8.11953 11.2272 11.9028C8.47559 10.7933 6.38076 11.3852 4.92236 12.2851C7.14707 9.45732 6.14883 6.2418 4.96689 4.2583Z" stroke="black" stroke-width="0.4" stroke-linecap="round" stroke-linejoin="round"/>
<path d="M4.49766 13.9568L4.07275 13.1441L15.02 12.4391C14.1591 13.2221 13.0532 13.8566 11.9344 14.3762" stroke="black" stroke-width="0.4" stroke-linecap="round" stroke-linejoin="round"/>
<path d="M8.43115 5.57382C10.294 6.14345 12.8991 8.89511 13.786 11.8527C13.2999 11.6616 12.9362 11.4668 12.2534 11.6412C11.5929 9.23837 10.4109 6.94316 8.43115 5.57382Z" stroke="black" stroke-width="0.4" stroke-linecap="round" stroke-linejoin="round"/>
<path d="M3.22852 14.7324C3.59961 14.7324 4.15625 13.9531 4.80566 13.8418C5.17676 13.8418 5.45508 14.6211 6.38281 14.7324C7.03223 14.7324 7.31055 13.9531 7.95996 13.9531C8.60938 13.9531 8.8877 14.7324 9.53711 14.7324C10.1865 14.7324 10.4648 13.9531 11.1143 13.9531C11.7637 13.9531 12.042 14.7324 12.6914 14.7324C13.3408 14.7324 13.6191 13.9531 14.2686 13.9531C14.918 13.9531 15.1963 14.7324 15.8457 14.7324" stroke="black" stroke-width="0.4" stroke-linecap="round" stroke-linejoin="round"/>
</svg>
