<svg width="18" height="19" viewBox="0 0 18 19" fill="none" xmlns="http://www.w3.org/2000/svg">
<path d="M3.68154 3.86712C4.23241 4.3146 4.43917 4.28063 5.47444 4.21122L15.2327 3.62565C15.4395 3.62565 15.2674 3.41889 15.1987 3.38492L13.5772 2.21305C13.267 1.97232 12.8528 1.69615 12.0597 1.76482L2.61157 2.45451C2.26746 2.48848 2.19805 2.66127 2.3354 2.79862L3.68154 3.86712ZM4.26711 6.14146L4.26711 16.4085C4.26711 16.9601 4.54255 17.1669 5.16356 17.1322L15.8877 16.5119C16.5087 16.4779 16.5781 16.0984 16.5781 15.6501V5.45177C16.5781 5.00429 16.4061 4.76282 16.0258 4.79679L4.81872 5.45177C4.4052 5.48648 4.26711 5.69398 4.26711 6.14146ZM14.8539 6.69159C14.9226 7.00173 14.8539 7.31186 14.5438 7.34731L14.0269 7.45069V15.0299C13.5779 15.2713 13.1644 15.4094 12.8195 15.4094C12.2672 15.4094 12.1291 15.2366 11.7156 14.7205L8.33583 9.41416V14.5477L9.40507 14.7899C9.40507 14.7899 9.40507 15.4102 8.54259 15.4102L6.16339 15.5475C6.09471 15.4102 6.16339 15.0653 6.40485 14.9966L7.02513 14.8246L7.02513 8.03626L6.16486 7.96685C6.09545 7.65671 6.26824 7.20922 6.75043 7.17452L9.30243 7.00246L12.8203 12.3775V7.622L11.9231 7.51936C11.8544 7.13981 12.1299 6.86438 12.4747 6.83041L14.8539 6.69159ZM1.8185 1.5241L11.6469 0.80044C12.8535 0.697061 13.1644 0.765734 13.9227 1.31734L17.0603 3.52227C17.5772 3.90108 17.75 4.00446 17.75 4.41798L17.75 16.5119C17.75 17.2695 17.4746 17.7185 16.5094 17.7864L5.09489 18.4761C4.37123 18.5108 4.02565 18.4074 3.6461 17.9245L1.33557 14.9265C0.922053 14.3749 0.75 13.9621 0.75 13.4792L0.75 2.7292C0.75 2.10967 1.02617 1.59203 1.8185 1.5241Z" fill="black"/>
</svg>
