<svg width="15" height="15" viewBox="0 0 15 15" fill="none" xmlns="http://www.w3.org/2000/svg">
<path d="M0.23999 5.3417C0.23999 3.47194 0.23999 2.53705 0.603872 1.82289C0.923953 1.1947 1.43469 0.683963 2.06288 0.363881C2.77704 0 3.71193 0 5.58169 0H9.65829C11.5281 0 12.463 0 13.1771 0.363881C13.8053 0.683963 14.316 1.1947 14.6361 1.82289C15 2.53705 15 3.47194 15 5.3417V9.4183C15 11.2881 15 12.223 14.6361 12.9371C14.316 13.5653 13.8053 14.076 13.1771 14.3961C12.463 14.76 11.5281 14.76 9.65829 14.76H5.58169C3.71193 14.76 2.77704 14.76 2.06288 14.3961C1.43469 14.076 0.923953 13.5653 0.603872 12.9371C0.23999 12.223 0.23999 11.2881 0.23999 9.4183V5.3417Z" fill="#330000"/>
<path d="M7.39269 9.2757H5.10547L4.64011 10.7584C4.6272 10.8135 4.57649 10.8525 4.5213 10.8498H3.36281C3.29675 10.8498 3.27365 10.8125 3.29351 10.738L5.27379 4.88855C5.29361 4.82762 5.31343 4.75824 5.3332 4.68039C5.35914 4.54486 5.37237 4.40717 5.37284 4.26911C5.36715 4.22831 5.40299 4.19227 5.44211 4.19799H7.01647C7.0626 4.19799 7.08896 4.21492 7.09565 4.24876L9.34333 10.7482C9.3631 10.816 9.34333 10.8498 9.28393 10.8498H7.9967C7.95157 10.8549 7.90845 10.824 7.8977 10.7787L7.39269 9.2757ZM5.46193 7.99611H7.02638C6.76935 7.11779 6.47926 6.25101 6.24416 5.36588C5.9905 6.25254 5.71375 7.13561 5.46193 7.99611Z" fill="#FF9A00"/>
<path d="M10.68 5.27443C10.579 5.27859 10.4783 5.26083 10.3844 5.22235C10.2906 5.18387 10.2057 5.12546 10.1354 5.05103C10.0653 4.97332 10.0108 4.88223 9.97507 4.78287C9.93938 4.68355 9.9232 4.57797 9.92741 4.47217C9.92383 4.36743 9.9418 4.26311 9.98018 4.16598C10.0186 4.06886 10.0765 3.98114 10.1502 3.90854C10.2232 3.83669 10.3093 3.78041 10.4037 3.74293C10.498 3.70545 10.5986 3.68753 10.6997 3.6902C10.9374 3.6902 11.1239 3.76298 11.2592 3.90854C11.3275 3.98418 11.3806 4.0729 11.4154 4.16962C11.4502 4.26632 11.4661 4.36917 11.4621 4.47217C11.4663 4.57834 11.4496 4.68434 11.413 4.78376C11.3765 4.88318 11.3208 4.97406 11.2493 5.05103C11.1746 5.12656 11.0854 5.18539 10.9874 5.22388C10.8894 5.2623 10.7848 5.27954 10.68 5.27443ZM9.99673 10.7482V5.89393C9.99673 5.83299 10.023 5.80252 10.076 5.80252H11.2939C11.3466 5.80252 11.373 5.83299 11.373 5.89393V10.7482C11.373 10.816 11.3466 10.8498 11.2939 10.8498H10.0859C10.0265 10.8498 9.99673 10.8159 9.99673 10.7482Z" fill="#FF9A00"/>
</svg>
