<svg width="15" height="15" viewBox="0 0 15 15" fill="none" xmlns="http://www.w3.org/2000/svg">
<path d="M0 5.3417C0 3.47194 0 2.53705 0.363881 1.82289C0.683963 1.1947 1.1947 0.683963 1.82289 0.363881C2.53705 0 3.47194 0 5.3417 0H9.4183C11.2881 0 12.223 0 12.9371 0.363881C13.5653 0.683963 14.076 1.1947 14.3961 1.82289C14.76 2.53705 14.76 3.47194 14.76 5.3417V9.4183C14.76 11.2881 14.76 12.223 14.3961 12.9371C14.076 13.5653 13.5653 14.076 12.9371 14.3961C12.223 14.76 11.2881 14.76 9.4183 14.76H5.3417C3.47194 14.76 2.53705 14.76 1.82289 14.3961C1.1947 14.076 0.683963 13.5653 0.363881 12.9371C0 12.223 0 11.2881 0 9.4183V5.3417Z" fill="#00005B"/>
<path d="M3.16284 10.4351V3.79957C3.16284 3.75443 3.18134 3.72863 3.22452 3.72863C3.86196 3.72863 4.4991 3.68994 5.13673 3.68994C6.1713 3.68994 7.29158 4.05052 7.68425 5.15376C7.77676 5.42461 7.82611 5.70189 7.82611 5.99208C7.82611 6.54663 7.70275 7.00446 7.456 7.3656C6.76681 8.37434 5.5722 8.35869 4.50136 8.35869V10.4286C4.50974 10.4899 4.45851 10.5189 4.40885 10.5189H3.23686C3.18752 10.5189 3.16284 10.4931 3.16284 10.4351ZM4.50753 4.97322V7.13988C4.93214 7.17161 5.37642 7.17504 5.78438 7.03672C6.23477 6.9043 6.48142 6.50694 6.48142 6.03077C6.49396 5.62503 6.27704 5.23568 5.90778 5.08929C5.50473 4.91845 4.94263 4.90822 4.50753 4.97322Z" fill="#9999FF"/>
<path d="M8.66231 5.38312H9.74485C9.80453 5.3837 9.85814 5.42677 9.8739 5.48697C9.95323 5.6711 9.96304 5.89319 9.9633 6.09197C10.149 5.86599 10.3728 5.67774 10.6237 5.53652C10.8928 5.37738 11.1979 5.29667 11.507 5.30295C11.5583 5.29525 11.6037 5.34275 11.5964 5.39636V6.65259C11.5964 6.70114 11.5632 6.72528 11.4971 6.72528C11.0389 6.69223 10.3256 6.80541 9.99261 7.18211V10.4485C9.99261 10.5108 9.96615 10.542 9.91317 10.542H8.75172C8.69468 10.5505 8.64434 10.4968 8.6524 10.4381V6.89139C8.6524 6.41617 8.66226 5.92661 8.59283 5.45582C8.58213 5.41249 8.62178 5.37221 8.66231 5.38312Z" fill="#9999FF"/>
</svg>
