<svg width="16" height="15" viewBox="0 0 16 15" fill="none" xmlns="http://www.w3.org/2000/svg">
<path d="M0.620117 5.46169C0.620117 3.59193 0.620117 2.65704 0.983999 1.94289C1.30408 1.3147 1.81482 0.803958 2.44301 0.483877C3.15717 0.119995 4.09205 0.119995 5.96181 0.119995H10.0384C11.9082 0.119995 12.8431 0.119995 13.5572 0.483877C14.1854 0.803958 14.6961 1.3147 15.0162 1.94289C15.3801 2.65704 15.3801 3.59193 15.3801 5.46169V9.5383C15.3801 11.4081 15.3801 12.343 15.0162 13.0571C14.6961 13.6853 14.1854 14.196 13.5572 14.5161C12.8431 14.88 11.9082 14.88 10.0384 14.88H5.96181C4.09205 14.88 3.15717 14.88 2.44301 14.5161C1.81482 14.196 1.30408 13.6853 0.983999 13.0571C0.620117 12.343 0.620117 11.4081 0.620117 9.5383V5.46169Z" fill="#001E36"/>
<path d="M3.78296 10.935V4.44438C3.78296 4.40026 3.80141 4.37501 3.84446 4.37501C4.48 4.37501 5.11526 4.33716 5.75094 4.33716C6.78251 4.33716 7.89942 4.68987 8.29093 5.76898C8.38318 6.03393 8.43236 6.30514 8.43236 6.58901C8.43236 7.13149 8.30938 7.5793 8.06336 7.93254C7.37618 8.91924 6.18515 8.9039 5.11753 8.9039V10.9287C5.12586 10.9886 5.07478 11.017 5.02528 11.017H3.85676C3.80756 11.017 3.78296 10.9918 3.78296 10.935ZM5.12364 5.59239V7.71177C5.54699 7.74276 5.98995 7.74614 6.39669 7.61087C6.84576 7.4813 7.09168 7.09264 7.09168 6.62686C7.10412 6.22997 6.88788 5.84916 6.51973 5.70594C6.11789 5.53883 5.55743 5.52882 5.12364 5.59239Z" fill="#31A8FF"/>
<path d="M12.2683 7.29311C12.0822 7.19501 11.884 7.12326 11.6791 7.07983C11.4158 7.01789 10.3775 6.80092 10.377 7.34387C10.3863 7.64698 10.8674 7.79548 11.08 7.88209C11.8264 8.13833 12.671 8.59637 12.6544 9.51713C12.6772 10.6633 11.5666 11.1216 10.6147 11.1217C10.1191 11.1268 9.60281 11.0501 9.14926 10.8373C9.10593 10.8144 9.0781 10.7654 9.07994 10.7154V9.61865C9.07504 9.57469 9.12227 9.53626 9.15917 9.56789C9.60355 9.83663 10.1303 9.96715 10.6444 9.97411C10.8713 9.97411 11.3211 9.95212 11.3177 9.61865C11.3177 9.29868 10.7797 9.15155 10.5652 9.07027C10.2543 8.9593 9.95948 8.80554 9.6889 8.61329C9.31073 8.34355 9.07351 7.91108 9.07994 7.43528C9.07773 6.35601 10.1 5.87156 11.0207 5.87135C11.451 5.86777 11.9132 5.89966 12.3139 6.07446C12.3715 6.09138 12.3834 6.15211 12.3832 6.20646V7.23217C12.3868 7.29585 12.3161 7.31752 12.2683 7.29311Z" fill="#31A8FF"/>
</svg>
