<svg width="20" height="21" viewBox="0 0 20 21" fill="none" xmlns="http://www.w3.org/2000/svg">
<g clip-path="url(#clip0_372_142)">
<path d="M10 20.4822C15.5228 20.4822 20 16.005 20 10.4822C20 4.95933 15.5228 0.482178 10 0.482178C4.47715 0.482178 0 4.95933 0 10.4822C0 16.005 4.47715 20.4822 10 20.4822Z" fill="#FF4A00"/>
<path d="M11.25 10.4843C11.2501 10.8446 11.185 11.2019 11.058 11.539C10.7206 11.6665 10.3629 11.732 10.0021 11.7322H9.99785C9.6376 11.7322 9.2803 11.6672 8.94316 11.5402C8.81564 11.2028 8.7502 10.845 8.75 10.4843V10.48C8.75004 10.1198 8.81508 9.7625 8.94199 9.42534C9.27942 9.29781 9.63713 9.23237 9.99785 9.23218H10.0021C10.3628 9.23203 10.7205 9.29714 11.058 9.42437C11.185 9.76149 11.2501 10.1188 11.25 10.4791V10.4833V10.4843ZM14.9305 9.64878H12.0117L14.0756 7.58511C13.9135 7.35776 13.7327 7.14433 13.5352 6.94702C13.3378 6.74974 13.1244 6.56924 12.8971 6.40737L10.8334 8.47046V5.55171C10.5589 5.5056 10.2811 5.48234 10.0027 5.48218H9.99746C9.71913 5.48234 9.44129 5.5056 9.1668 5.55171V8.47046L7.10293 6.40659C6.87559 6.5687 6.66216 6.74947 6.46484 6.94702C6.26764 7.14424 6.0872 7.35755 5.92539 7.58472L7.98828 9.64878H5.06953C5.06953 9.64878 5 10.197 5 10.4804V10.4839C5.00011 10.7626 5.02337 11.0408 5.06953 11.3156H7.98828L5.92441 13.3792C6.24896 13.8349 6.64727 14.2332 7.10293 14.5578L9.1666 12.4939V15.4126C9.44083 15.4587 9.71841 15.482 9.99648 15.4822H10.0037C10.2817 15.4819 10.5592 15.4587 10.8334 15.4126V12.4939L12.8971 14.5578C13.1244 14.3957 13.3378 14.2149 13.5352 14.0173C13.7325 13.82 13.9131 13.6066 14.075 13.3792L12.0117 11.3156H14.9305C14.9765 11.0413 14.9998 10.7638 15 10.4857V10.4785C14.9998 10.2005 14.9765 9.92295 14.9305 9.64878Z" fill="white"/>
</g>
<defs>
<clipPath id="clip0_372_142">
<rect width="20" height="20" fill="white" transform="translate(0 0.482178)"/>
</clipPath>
</defs>
</svg>
