<svg width="18" height="19" viewBox="0 0 18 19" fill="none" xmlns="http://www.w3.org/2000/svg">
<path fill-rule="evenodd" clip-rule="evenodd" d="M2 0.482178C0.895431 0.482178 0 1.37761 0 2.48218L0 16.4822C0 17.5867 0.89543 18.4822 2 18.4822L16 18.4822C17.1046 18.4822 18 17.5867 18 16.4822L18 2.48218C18 1.37761 17.1046 0.482178 16 0.482178L2 0.482178Z" fill="white"/>
<path fill-rule="evenodd" clip-rule="evenodd" d="M2 0.482178C0.895431 0.482178 0 1.37761 0 2.48218L0 16.4822C0 17.5867 0.89543 18.4822 2 18.4822L16 18.4822C17.1046 18.4822 18 17.5867 18 16.4822L18 2.48218C18 1.37761 17.1046 0.482178 16 0.482178L2 0.482178ZM12.401 7.8254C12.401 7.8254 11.428 10.7643 11.3485 11.007C11.1035 9.16511 10.8561 7.3235 10.6065 5.48218C8.9485 5.48218 8.062 6.61864 7.5935 7.81818L6.311 11.0142C6.3035 10.785 6.131 7.85285 6.131 7.85285C6.029 6.38316 4.631 5.48844 3.5 5.48844L4.8695 13.4822C6.6065 13.475 7.543 12.3452 8.0335 11.1457C8.0335 11.1457 9.0785 8.54628 9.1215 8.4283C9.129 8.53906 9.8715 13.4817 9.8715 13.4817C11.6155 13.4817 12.5525 12.4213 13.0565 11.2637L15.5 5.48892C13.7775 5.48892 12.8695 6.61912 12.401 7.8254Z" fill="#4353FF"/>
</svg>
